<?xml version="1.0" standalone="no"?>
<!DOCTYPE svg PUBLIC "-//W3C//DTD SVG 20010904//EN"
 "http://www.w3.org/TR/2001/REC-SVG-20010904/DTD/svg10.dtd">
<svg version="1.0" xmlns="http://www.w3.org/2000/svg"
 width="800.000000pt" height="200.000000pt" viewBox="0 0 800.000000 200.000000"
 preserveAspectRatio="xMidYMid meet">

<g transform="translate(0.000000,200.000000) scale(0.100000,-0.100000)"
fill="#000000" stroke="none">
<path d="M4275 1936 c-139 -27 -233 -79 -307 -168 -118 -143 -105 -136 -393
-232 -289 -96 -397 -144 -467 -205 -96 -85 -111 -177 -57 -354 38 -126 43
-214 14 -247 -11 -13 -52 -38 -91 -56 -39 -18 -76 -39 -82 -46 -6 -8 -16 -52
-22 -100 -22 -182 -112 -351 -233 -439 l-38 -28 40 -11 c23 -6 41 -15 41 -20
0 -15 47 -12 78 4 37 19 76 63 99 111 28 56 47 159 34 184 -13 23 3 220 19
251 10 18 17 22 36 19 4 0 10 3 13 8 3 4 33 21 66 36 44 21 69 40 89 70 15 23
25 34 22 25 -3 -10 -1 -18 4 -18 14 0 12 34 -2 48 -9 9 -9 12 0 12 7 0 12 10
12 23 0 19 -6 47 -35 176 -4 14 -8 29 -11 33 -3 5 -6 40 -5 78 0 51 6 81 22
112 27 54 65 99 74 90 4 -4 5 -2 3 5 -2 6 6 19 17 27 11 8 17 16 13 16 -4 0
-32 -21 -63 -46 -64 -52 -58 -26 6 30 82 69 268 143 584 232 72 19 137 41 145
47 13 10 13 10 1 -5 -7 -10 -19 -18 -26 -18 -7 0 -19 -7 -26 -16 -12 -15 -11
-16 11 -10 62 18 81 32 131 94 58 72 127 139 141 135 4 -2 8 1 8 6 0 21 187
79 271 85 119 8 119 8 74 17 -26 5 2 6 75 4 130 -5 240 -22 415 -65 174 -43
178 -43 85 -10 -276 99 -615 149 -785 116z m118 -43 c-7 -2 -21 -2 -30 0 -10
3 -4 5 12 5 17 0 24 -2 18 -5z"/>
<path d="M5250 1815 c-37 -76 -22 -111 108 -270 107 -129 137 -182 129 -231
-7 -42 6 -44 23 -4 24 57 16 74 -120 260 -105 143 -126 189 -113 246 13 57 1
56 -27 -1z"/>
<path d="M4752 1591 c-57 -20 -144 -75 -183 -117 -21 -23 -17 -22 38 11 151
90 264 105 448 59 11 -2 3 5 -17 16 -48 26 -141 50 -193 50 -22 -1 -64 -9 -93
-19z"/>
<path d="M5087 1537 c-18 -46 4 -157 32 -157 4 0 18 -9 30 -19 18 -16 74 -30
126 -33 15 0 88 -38 109 -57 18 -15 18 -15 8 6 -21 38 -82 80 -172 118 -49 20
-94 43 -101 52 -8 8 -16 36 -19 62 -4 33 -7 41 -13 28z"/>
<path d="M4271 1426 c2 -3 73 -18 157 -35 170 -34 262 -63 304 -92 36 -26 35
-39 -6 -67 -71 -48 -267 -92 -412 -92 -78 0 -83 -1 -73 -17 60 -94 268 -96
470 -5 36 16 83 45 103 63 35 30 37 36 32 73 -4 22 -12 47 -19 55 -32 38 -193
82 -367 100 -58 6 -125 14 -149 16 -25 3 -43 3 -40 1z"/>
<path d="M2848 1346 c-113 -30 -165 -99 -187 -243 -20 -129 -73 -253 -139
-322 -46 -48 -37 -52 33 -12 36 21 52 25 52 16 0 -8 -5 -11 -11 -8 -6 3 -8 3
-4 -2 4 -4 2 -15 -5 -24 -6 -9 8 0 33 20 60 48 106 139 126 249 24 136 46 174
136 243 l53 40 -40 -6 -40 -6 40 21 c22 12 68 23 105 26 63 6 64 6 25 13 -59
11 -124 9 -177 -5z"/>
<path d="M4256 1254 c-49 -13 -159 -35 -245 -49 -448 -72 -481 -86 -564 -241
-71 -133 -186 -258 -354 -386 -29 -22 -53 -42 -53 -45 0 -14 218 137 302 210
72 62 78 66 50 29 -19 -23 -38 -44 -43 -48 -5 -3 -6 -10 -3 -16 4 -6 18 3 35
21 15 17 32 31 36 31 12 0 97 118 127 177 14 29 44 70 65 91 22 21 33 39 25
39 -8 0 -14 -5 -14 -10 0 -6 -3 -7 -7 -4 -3 4 -18 0 -32 -10 -25 -16 -25 -16
-12 1 24 28 92 64 156 80 33 8 152 31 265 50 209 35 320 64 355 90 25 19 20
19 -89 -10z"/>
<path d="M3106 689 c-22 -38 -13 -50 14 -19 22 25 25 36 12 44 -5 3 -16 -9
-26 -25z"/>
<path d="M3009 622 c-36 -18 -66 -39 -66 -46 0 -10 6 -10 26 1 36 19 84 37 94
34 5 -1 6 3 2 9 -3 5 1 10 9 10 16 0 22 16 9 23 -5 2 -38 -12 -74 -31z"/>
<path d="M3740 630 c0 -11 5 -20 10 -20 6 0 10 9 10 20 0 11 -4 20 -10 20 -5
0 -10 -9 -10 -20z"/>
<path d="M3990 630 c0 -11 5 -20 10 -20 6 0 10 9 10 20 0 11 -4 20 -10 20 -5
0 -10 -9 -10 -20z"/>
<path d="M4375 642 c-5 -4 -10 -23 -11 -42 0 -19 -5 -70 -9 -114 -8 -73 -7
-78 11 -74 10 2 20 12 22 22 3 12 0 16 -8 11 -10 -6 -11 1 -7 26 3 19 9 57 12
84 3 28 8 60 11 73 4 22 -3 28 -21 14z"/>
<path d="M4555 642 c-5 -4 -10 -25 -10 -47 -1 -22 -5 -72 -9 -110 l-8 -70 27
-3 c16 -1 34 3 41 9 20 16 36 86 29 121 -6 25 -11 29 -32 25 -24 -4 -25 -3
-18 39 6 43 1 52 -20 36z m49 -107 c8 -23 -17 -90 -34 -90 -17 0 -16 32 2 78
12 30 23 35 32 12z"/>
<path d="M5234 639 c-3 -6 -1 -16 5 -22 8 -8 11 -5 11 11 0 24 -5 28 -16 11z"/>
<path d="M3300 543 c-18 -54 -37 -102 -41 -107 -16 -17 -10 -27 13 -24 15 2
23 10 24 23 2 51 4 55 29 55 21 0 25 -5 25 -29 0 -16 -6 -31 -12 -34 -9 -3 -7
-7 5 -12 24 -10 52 2 39 18 -5 6 -13 48 -16 92 -13 147 -21 149 -66 18z m36
-21 c-12 -11 -17 7 -9 34 l8 29 3 -28 c2 -16 1 -31 -2 -35z"/>
<path d="M4257 629 c-45 -26 -64 -150 -31 -197 21 -30 61 -26 87 10 28 38 15
45 -18 12 l-28 -28 -18 23 c-25 30 -24 82 1 131 24 48 44 51 65 10 20 -39 25
-38 25 8 0 35 -2 37 -33 39 -17 1 -40 -2 -50 -8z"/>
<path d="M4736 622 c-27 -31 -20 -67 20 -100 42 -35 45 -75 6 -80 -18 -3 -25
3 -34 30 -12 33 -12 33 -19 8 -11 -40 -10 -61 4 -59 6 1 20 -1 30 -6 31 -13
65 10 73 51 6 34 4 40 -35 76 -34 33 -39 43 -31 59 15 27 37 24 54 -8 l15 -28
1 35 c0 33 -2 35 -34 37 -22 2 -39 -3 -50 -15z"/>
<path d="M5455 620 c7 -23 -14 -170 -26 -184 -18 -20 -8 -26 45 -26 60 0 61 0
71 48 8 38 -7 43 -23 7 -13 -29 -69 -38 -58 -9 3 9 6 27 6 40 0 15 6 24 15 24
9 0 15 -9 15 -22 0 -36 18 -7 20 32 3 50 0 58 -10 33 -14 -34 -32 -28 -28 10
4 41 39 50 56 15 11 -23 11 -23 11 -1 2 43 -9 53 -56 53 -40 0 -44 -2 -38 -20z"/>
<path d="M3923 613 c-3 -10 -13 -27 -22 -37 -10 -12 -12 -20 -5 -23 6 -2 9
-26 6 -64 -5 -67 7 -91 33 -69 20 17 19 34 -1 26 -15 -6 -16 0 -10 46 4 29 12
56 18 59 6 4 7 12 2 20 -5 8 -7 24 -5 37 3 26 -7 29 -16 5z"/>
<path d="M5158 601 c-12 -22 -22 -29 -41 -27 -42 5 -49 -7 -53 -89 -4 -88 4
-90 26 -7 8 31 20 57 25 57 6 0 15 4 22 8 9 6 11 -7 6 -56 -4 -44 -2 -66 6
-71 15 -9 41 11 41 31 0 13 -3 13 -16 3 -13 -12 -14 -8 -8 41 12 96 52 83 50
-17 -1 -46 2 -59 14 -59 8 0 16 8 18 19 3 12 0 16 -7 11 -11 -6 -9 35 5 103 4
20 1 23 -18 22 -41 -4 -47 0 -50 30 l-3 30 -17 -29z"/>
<path d="M6008 605 c-6 -14 -14 -25 -17 -25 -3 0 -5 -35 -4 -77 2 -99 0 -93
18 -93 18 0 39 36 26 44 -5 4 -12 0 -15 -6 -4 -7 -4 11 -1 41 2 29 9 59 15 66
8 10 8 15 0 20 -7 4 -9 18 -6 31 8 31 -1 31 -16 -1z"/>
<path d="M4486 573 c-3 -3 -6 -17 -6 -29 0 -30 -29 -104 -41 -104 -6 0 -7 27
-3 65 6 55 4 65 -9 65 -20 0 -33 -20 -20 -29 6 -3 8 -27 4 -57 -4 -28 -5 -56
-3 -62 5 -15 39 -16 48 -1 5 8 9 7 14 -1 10 -17 40 -5 40 15 0 9 -5 13 -11 10
-10 -7 -6 60 7 107 5 17 -9 32 -20 21z"/>
<path d="M3422 558 c-20 -20 -13 -46 18 -70 17 -12 30 -28 30 -35 0 -18 -37
-16 -44 2 -9 23 -28 18 -24 -7 4 -29 50 -47 72 -28 25 20 20 66 -10 89 -18 14
-24 26 -19 38 6 16 8 16 25 -5 19 -23 35 -16 24 12 -7 19 -55 21 -72 4z"/>
<path d="M3526 548 c-19 -26 -21 -109 -4 -126 19 -19 45 -14 62 10 16 22 21
92 10 122 -9 23 -50 19 -68 -6z m47 -48 c-2 -47 -14 -67 -33 -55 -12 7 -7 75
6 97 14 22 29 -2 27 -42z"/>
<path d="M3635 550 c-24 -27 -26 -103 -3 -126 14 -15 22 -16 43 -6 14 6 25 18
25 27 0 17 -16 20 -25 5 -3 -5 -13 -10 -21 -10 -17 0 -19 45 -4 84 11 31 30
34 30 6 0 -25 16 -26 29 -3 15 28 19 12 11 -42 -9 -56 -4 -75 16 -75 18 0 32
32 16 38 -8 2 -10 22 -5 63 5 48 3 59 -9 59 -8 0 -19 -5 -26 -12 -9 -9 -12 -9
-12 0 0 19 -45 14 -65 -8z"/>
<path d="M3786 548 c-21 -30 -22 -126 -1 -134 8 -4 21 -1 28 5 10 8 17 7 25
-1 8 -8 15 -8 27 2 19 16 20 34 1 27 -9 -4 -13 -1 -11 6 2 7 6 36 10 65 l6 52
-35 0 c-25 0 -39 -7 -50 -22z m54 -18 c0 -32 -28 -92 -40 -85 -13 8 -13 34 1
74 12 35 39 42 39 11z"/>
<path d="M3964 559 c-3 -6 -2 -14 3 -18 6 -3 8 -27 3 -58 -7 -58 0 -79 24 -70
17 7 22 37 6 37 -6 0 -7 23 -3 60 5 51 3 60 -10 60 -9 0 -19 -5 -23 -11z"/>
<path d="M4036 548 c-21 -30 -22 -126 -1 -134 8 -4 22 -1 29 5 10 8 16 9 21 1
10 -16 23 -12 36 12 10 18 9 20 -5 15 -14 -6 -15 0 -10 36 3 23 7 52 10 65 4
19 0 22 -30 22 -25 0 -39 -7 -50 -22z m54 -18 c0 -32 -28 -92 -40 -85 -13 8
-13 34 1 74 12 35 39 42 39 11z"/>
<path d="M4835 559 c-4 -5 -4 -13 -1 -18 9 -14 -13 -162 -25 -178 -16 -19 -6
-25 26 -17 16 4 23 10 17 16 -16 16 -2 56 18 51 11 -3 25 6 39 23 17 22 21 39
19 78 l-3 51 -42 2 c-24 1 -45 -2 -48 -8z m75 -26 c0 -58 -31 -109 -52 -87 -8
7 11 75 24 92 15 17 28 15 28 -5z"/>
<path d="M4959 548 c-18 -34 -17 -104 2 -124 22 -21 53 -11 67 22 16 33 15 97
0 112 -20 20 -56 14 -69 -10z m55 -14 c9 -24 -12 -94 -29 -94 -18 0 -20 45 -5
84 11 30 25 34 34 10z"/>
<path d="M5278 563 c-2 -5 -3 -39 -3 -78 0 -63 2 -70 20 -70 14 0 27 14 43 45
23 45 30 110 12 110 -5 0 -10 -14 -10 -30 0 -38 -25 -100 -40 -100 -6 0 -9 8
-7 18 3 9 8 38 12 65 5 38 3 47 -9 47 -8 0 -16 -3 -18 -7z"/>
<path d="M5580 556 c-18 -22 -25 -99 -11 -125 15 -26 42 -27 66 -1 19 21 13
42 -7 22 -32 -32 -53 1 -38 59 11 41 40 55 40 19 0 -11 5 -20 11 -20 6 0 9 12
7 28 -2 21 -9 28 -29 30 -14 2 -31 -4 -39 -12z"/>
<path d="M5677 563 c-2 -5 -3 -39 -3 -78 1 -63 3 -70 21 -70 14 0 27 14 43 45
22 44 22 44 22 13 0 -33 22 -63 46 -63 17 0 58 39 50 47 -3 3 -12 0 -21 -7
-17 -14 -45 -7 -45 13 0 7 15 20 33 28 26 11 32 20 32 44 0 52 -64 45 -85 -10
-7 -17 -9 -15 -9 13 -1 17 -5 32 -11 32 -5 0 -10 -3 -11 -7 -4 -38 -7 -53 -18
-85 -7 -21 -17 -38 -22 -38 -7 0 -5 60 6 113 3 16 -20 25 -28 10z m163 -21 c0
-13 -23 -32 -37 -32 -11 0 -11 5 -3 20 10 19 40 28 40 12z"/>
<path d="M5885 550 c-9 -30 2 -55 30 -68 28 -13 31 -24 11 -42 -12 -9 -17 -7
-28 9 -16 26 -28 27 -28 3 0 -24 19 -42 45 -42 54 0 61 62 13 102 -29 23 -31
27 -15 34 12 4 22 0 31 -11 15 -21 30 -6 20 19 -9 25 -71 21 -79 -4z"/>
<path d="M6059 566 c0 0 -2 -37 -3 -81 -3 -70 -2 -77 10 -60 8 10 14 26 14 35
0 38 22 80 42 80 19 0 20 -4 15 -50 -3 -28 -4 -57 0 -65 6 -18 39 -20 49 -4 4
8 9 7 14 -2 7 -10 11 -10 24 0 18 15 22 36 5 25 -9 -5 -10 11 -5 60 9 76 -9
94 -20 21 -3 -25 -15 -56 -26 -68 l-19 -22 6 66 6 67 -55 0 c-31 0 -56 -1 -57
-2z"/>
<path d="M4456 259 c-13 -8 -15 -14 -7 -19 9 -5 9 -23 2 -71 -17 -100 -15
-141 6 -137 10 2 19 12 21 22 3 11 0 16 -7 12 -13 -9 -13 -4 -2 65 25 146 25
149 -13 128z"/>
<path d="M4516 259 c-14 -9 -15 -13 -6 -19 10 -6 11 -21 2 -67 -6 -32 -12 -76
-14 -97 -3 -38 -1 -40 29 -43 25 -3 35 1 47 19 37 58 27 146 -16 135 -19 -5
-20 -2 -15 39 5 47 3 50 -27 33z m54 -118 c0 -43 -17 -81 -36 -81 -13 0 -15 6
-11 28 15 75 47 111 47 53z"/>
<path d="M5006 258 c-11 -6 -14 -13 -8 -17 7 -4 6 -34 -3 -96 -14 -94 -12
-115 11 -115 19 0 30 30 15 39 -8 5 -8 28 0 88 13 100 11 116 -15 101z"/>
<path d="M5070 250 c0 -11 5 -20 10 -20 6 0 10 9 10 20 0 11 -4 20 -10 20 -5
0 -10 -9 -10 -20z"/>
<path d="M4330 163 c-18 -54 -37 -102 -41 -107 -16 -17 -10 -27 13 -24 15 2
23 10 24 23 2 51 4 55 29 55 21 0 25 -5 25 -29 0 -16 -6 -31 -12 -34 -9 -3 -7
-7 5 -12 27 -11 50 1 39 22 -5 10 -12 52 -16 93 -13 141 -22 143 -66 13z m36
-21 c-12 -11 -17 7 -9 34 l8 29 3 -28 c2 -16 1 -31 -2 -35z"/>
<path d="M4813 180 c-1 -50 -7 -91 -17 -111 -20 -41 -21 -39 15 -39 25 0 30 3
25 17 -11 27 5 173 20 188 20 20 17 25 -13 25 l-28 0 -2 -80z"/>
<path d="M4947 193 c-2 -5 -10 -31 -17 -60 -6 -29 -19 -58 -27 -65 -14 -11
-15 -6 -9 55 8 69 2 80 -33 58 -10 -6 -10 -10 -1 -16 7 -4 10 -29 8 -69 l-3
-61 47 -1 c35 -1 48 2 53 14 3 9 1 18 -5 20 -7 3 -8 25 -4 68 6 58 3 77 -9 57z"/>
<path d="M4630 175 c-15 -18 -24 -86 -16 -119 5 -22 11 -25 44 -23 20 1 43 6
50 10 17 11 15 28 -3 21 -10 -4 -14 -1 -11 7 2 8 7 38 11 67 l6 52 -34 0 c-19
0 -40 -7 -47 -15z m52 -11 c8 -7 -11 -75 -25 -92 -18 -23 -27 9 -15 56 9 38
25 52 40 36z"/>
<path d="M5049 188 c0 -2 -2 -36 -4 -76 -3 -76 6 -95 33 -68 14 14 14 18 4 25
-10 6 -12 22 -7 65 6 48 5 56 -9 56 -9 0 -16 -1 -17 -2z"/>
<path d="M5115 170 c-12 -14 -19 -37 -19 -70 -1 -57 15 -81 43 -63 13 8 22 8
29 1 13 -13 32 -2 32 18 0 8 -5 12 -10 9 -7 -5 -9 15 -4 59 l7 66 -30 0 c-17
0 -38 -9 -48 -20z m50 -37 c-13 -70 -45 -101 -45 -44 0 43 17 81 36 81 13 0
15 -7 9 -37z"/>
</g>
</svg>
